<svg width="1359" height="752" viewBox="0 0 1359 752" fill="none" xmlns="http://www.w3.org/2000/svg">
<g clip-path="url(#clip0)">
<path d="M1085.71 252.508C989.382 -43.2572 471.781 -56.1157 432.033 275.726C432.033 275.726 401.346 281.796 374.28 277.657C226.69 255.103 -31.5622 537.406 166.642 753.129H1273.49C1393.25 547.112 1307.22 336.317 1085.71 252.508Z" fill="#F6F5F5"/>
<path d="M819.74 437.707L817.832 435.851C941.377 308.986 946.291 239.594 953.722 134.569C956.355 97.3766 959.33 55.3011 967.889 4.52086C909.377 31.6861 861.95 69.3061 826.889 116.375C798.474 154.523 778.058 198.932 766.222 248.375C746.048 332.631 757.965 403.225 758.086 403.929L755.463 404.386C755.337 403.677 743.329 332.631 763.609 247.857C775.521 198.042 796.082 153.291 824.714 114.836C860.505 66.7716 909.075 28.4878 969.067 1.046L971.358 -0.0050106L970.93 2.47919C962.069 54.2501 959.043 97.0195 956.37 134.755C948.904 240.374 943.97 310.143 819.74 437.707Z" fill="#DADADA"/>
<path d="M796.455 410.456L793.872 409.792C794.365 407.891 843.564 218.192 905.46 112.89L907.761 114.238C846.051 219.223 796.943 408.555 796.455 410.456Z" fill="#DADADA"/>
<path d="M864.679 202.04L862.016 201.944C862.031 201.562 863.144 163.484 843.227 126.84L845.568 125.573C865.847 162.881 864.694 201.652 864.679 202.04Z" fill="#DADADA"/>
<path d="M836.284 279.171L834.411 277.285C862.721 249.204 899.71 240.53 900.078 240.444L900.667 243.039C900.304 243.119 864.04 251.643 836.284 279.171Z" fill="#DADADA"/>
<path d="M913.722 519.001L913.46 516.351C961.631 511.584 1000.71 479.34 1032.92 417.778C1061.46 363.236 1081.06 293.543 1100.02 226.148C1112.31 182.453 1123.94 141.127 1137.51 105.342C998.873 139.95 941.412 249.717 940.843 250.829L938.472 249.622C939.051 248.49 997.699 136.364 1139.35 102.154L1141.81 101.56L1140.9 103.924C1126.99 140.136 1115.14 182.267 1102.59 226.872C1083.6 294.398 1063.95 364.222 1035.28 419.01C1002.62 481.432 962.855 514.138 913.722 519.001Z" fill="#DADADA"/>
<path d="M901.915 453.653L899.484 452.577C900.294 450.751 981.271 269.616 1049.3 216.95L1050.93 219.052C1023.04 240.64 988.451 288.026 950.877 356.085C922.447 407.584 902.122 453.2 901.915 453.653Z" fill="#DADADA"/>
<path d="M991.406 287.513L988.788 287.025C988.828 286.824 992.584 266.312 995.927 216.754L998.586 216.935C995.227 266.684 991.441 287.312 991.406 287.513Z" fill="#DADADA"/>
<path d="M945.999 364.664L944.488 362.472C944.856 362.22 981.85 337.021 1030.41 325.958L1031 328.553C982.938 339.505 946.361 364.418 945.999 364.664Z" fill="#DADADA"/>
<path d="M300.971 692.865C181.333 570.013 176.575 502.814 169.38 401.097C166.808 364.76 163.893 323.569 155.364 273.719L154.941 271.235L157.232 272.286C288.112 332.143 337.079 434.589 355.113 509.99C374.643 591.636 363.078 660.067 362.957 660.746L360.334 660.289C360.45 659.61 371.924 591.641 352.5 510.508C334.698 436.163 286.552 335.291 158.41 275.756C166.642 324.615 169.506 365.107 172.039 400.901C179.193 502.034 183.92 568.841 302.884 690.999L300.971 692.865Z" fill="#DADADA"/>
<path d="M323.38 666.605C322.912 664.774 275.621 482.452 216.198 381.365L218.493 380.017C278.108 481.431 325.489 664.111 325.958 665.941L323.38 666.605Z" fill="#DADADA"/>
<path d="M257.678 465.888C257.663 465.516 256.555 428.162 276.084 392.222L278.426 393.489C259.254 428.771 260.326 465.425 260.336 465.792L257.678 465.888Z" fill="#DADADA"/>
<path d="M285.036 540.197C258.322 513.701 223.407 505.499 223.06 505.414L223.654 502.824C224.011 502.904 259.641 511.257 286.914 538.312L285.036 540.197Z" fill="#DADADA"/>
<path d="M218.735 739.532C115.948 729.982 74.7996 616.172 38.4949 515.753C26.2254 481.814 14.6307 449.755 1.18817 422.163L0 419.724L2.65829 420.272C72.091 434.704 119.955 464.962 147.877 487.803C178.171 512.58 192.238 534.279 192.374 534.495L190.128 535.928C189.584 535.078 134.626 451.4 4.76277 423.44C17.7672 450.595 29.065 481.834 40.9971 514.847C77.03 614.517 117.876 727.488 218.977 736.881L218.735 739.532Z" fill="#DADADA"/>
<path d="M228.975 690.084C228.2 688.696 150.561 550.979 86.8174 510.588L88.2422 508.34C152.55 549.093 230.516 687.394 231.296 688.782L228.975 690.084Z" fill="#DADADA"/>
<path d="M143.22 562.998C143.185 562.842 139.389 547.132 135.643 509.356L138.291 509.095C142.012 546.639 145.768 562.213 145.803 562.364L143.22 562.998Z" fill="#DADADA"/>
<path d="M186.735 622.201C186.392 622.005 151.845 602.679 106.744 593.804L107.258 591.194C152.801 600.155 187.701 619.687 188.049 619.883L186.735 622.201Z" fill="#DADADA"/>
<path d="M1174.36 751.319L1173.74 748.734C1286.91 721.131 1308.25 599.702 1328.88 482.281C1336.13 441.066 1343.61 398.472 1355.06 361.607C1242.4 383.165 1178.59 460.859 1144.83 522.456C1107.96 589.73 1097.98 652.871 1097.89 653.5L1095.26 653.098C1095.35 652.464 1105.39 588.926 1142.46 521.249C1176.71 458.722 1241.69 379.745 1356.75 358.579L1358.93 358.177L1358.27 360.289C1346.49 397.467 1338.88 440.819 1331.51 482.739C1310.72 601.01 1289.23 723.304 1174.36 751.319Z" fill="#DADADA"/>
<path d="M1164.68 684.758L1162.11 684.049C1162.52 682.556 1204.25 534.379 1272.11 475.86L1273.85 477.876C1206.61 535.863 1165.09 683.275 1164.68 684.758Z" fill="#DADADA"/>
<path d="M1212.64 560.513L1210.04 559.975C1210.1 559.674 1216.19 529.481 1214.05 485.153L1216.72 485.022C1218.87 529.712 1212.71 560.207 1212.64 560.513Z" fill="#DADADA"/>
<path d="M1176.76 625.007L1175.12 622.905C1175.49 622.618 1212.73 593.894 1264.18 575.645L1265.07 578.149C1214.02 596.263 1177.12 624.72 1176.76 625.007Z" fill="#DADADA"/>
<path d="M913.253 207.28C908.481 207.28 904.599 203.402 904.599 198.63C904.599 193.858 908.481 189.981 913.253 189.981C918.026 189.981 921.908 193.858 921.908 198.63C921.908 203.402 918.026 207.28 913.253 207.28ZM913.253 192.646C909.951 192.646 907.262 195.331 907.262 198.63C907.262 201.929 909.951 204.614 913.253 204.614C916.556 204.614 919.245 201.929 919.245 198.63C919.245 195.331 916.556 192.646 913.253 192.646Z" fill="#DADADA"/>
<path d="M195.45 340.969C190.677 340.969 186.79 337.092 186.79 332.319C186.79 327.547 190.672 323.67 195.45 323.67C200.228 323.67 204.104 327.547 204.104 332.319C204.104 337.092 200.223 340.969 195.45 340.969ZM195.45 326.335C192.147 326.335 189.459 329.02 189.459 332.319C189.459 335.618 192.147 338.303 195.45 338.303C198.752 338.303 201.441 335.618 201.441 332.319C201.441 329.025 198.752 326.335 195.45 326.335Z" fill="#DADADA"/>
<path d="M998.485 533.635C993.712 533.635 989.83 529.758 989.83 524.99C989.83 520.223 993.712 516.346 998.485 516.346C1003.26 516.346 1007.14 520.223 1007.14 524.99C1007.14 529.758 1003.26 533.635 998.485 533.635ZM998.485 519.006C995.182 519.006 992.493 521.692 992.493 524.99C992.493 528.289 995.182 530.975 998.485 530.975C1001.79 530.975 1004.48 528.289 1004.48 524.99C1004.48 521.692 1001.79 519.006 998.485 519.006Z" fill="#DADADA"/>
<path d="M1293.02 441.403C1288.25 441.403 1284.37 437.526 1284.37 432.758C1284.37 427.991 1288.25 424.109 1293.02 424.109C1297.79 424.109 1301.68 427.986 1301.68 432.758C1301.68 437.526 1297.79 441.403 1293.02 441.403ZM1293.02 426.769C1289.72 426.769 1287.03 429.454 1287.03 432.758C1287.03 436.057 1289.72 438.742 1293.02 438.742C1296.32 438.742 1299.01 436.057 1299.01 432.758C1299.01 429.459 1296.32 426.769 1293.02 426.769Z" fill="#DADADA"/>
<path d="M969.853 416.792C973.162 416.792 975.844 414.113 975.844 410.808C975.844 407.503 973.162 404.824 969.853 404.824C966.544 404.824 963.862 407.503 963.862 410.808C963.862 414.113 966.544 416.792 969.853 416.792Z" fill="#DADADA"/>
<path d="M1245.74 637.177C1249.05 637.177 1251.73 634.497 1251.73 631.192C1251.73 627.887 1249.05 625.208 1245.74 625.208C1242.43 625.208 1239.75 627.887 1239.75 631.192C1239.75 634.497 1242.43 637.177 1245.74 637.177Z" fill="#DADADA"/>
<path d="M810.709 239.877C810.713 236.572 808.035 233.889 804.726 233.885C801.417 233.88 798.731 236.555 798.726 239.86C798.722 243.165 801.4 245.848 804.709 245.853C808.018 245.858 810.704 243.182 810.709 239.877Z" fill="#DADADA"/>
<path d="M143.064 656.688C146.373 656.688 149.056 654.009 149.056 650.704C149.056 647.399 146.373 644.72 143.064 644.72C139.755 644.72 137.073 647.399 137.073 650.704C137.073 654.009 139.755 656.688 143.064 656.688Z" fill="#DADADA"/>
<path d="M313.729 243.386C312.963 243.386 312.188 243.275 311.418 243.044L294.849 238.101C292.779 237.482 291.078 236.099 290.056 234.204C289.034 232.313 288.817 230.135 289.436 228.084L295.08 209.362C288.072 205.645 281.648 200.984 275.949 195.477L259.798 206.369C256.107 208.854 251.083 207.888 248.585 204.217L238.899 189.961C237.69 188.18 237.247 186.043 237.655 183.931C238.063 181.819 239.271 179.989 241.059 178.787L257.023 168.025C253.64 160.07 251.521 151.647 250.72 142.952L231.78 140.785C229.635 140.538 227.712 139.472 226.373 137.787C225.033 136.108 224.434 134.006 224.681 131.874L226.66 114.766C227.168 110.356 231.181 107.183 235.606 107.69L254.3 109.833C256.807 101.993 260.442 94.5906 265.129 87.8018L252.22 74.4254C250.725 72.8765 249.925 70.8399 249.965 68.6926C250.01 66.5403 250.886 64.5389 252.447 63.0453L264.918 51.1071C268.13 48.0295 273.25 48.1301 276.331 51.3284L289.124 64.5791C296.384 59.9325 304.274 56.4476 312.596 54.2098L311.408 35.9454C311.121 31.5202 314.499 27.6782 318.939 27.3916L336.198 26.2702C340.694 25.9735 344.49 29.3477 344.782 33.773L345.975 52.0424C354.519 53.184 362.786 55.6179 370.585 59.2838L381.55 44.4842C384.193 40.9138 389.258 40.1545 392.838 42.7845L406.754 53.008C408.491 54.2853 409.623 56.156 409.946 58.2831C410.268 60.4103 409.739 62.5324 408.455 64.2623L397.394 79.1926C402.917 85.3226 407.484 92.1919 410.988 99.6395L429.243 95.0935C433.568 94.0274 437.958 96.6474 439.036 100.952L443.22 117.662C443.743 119.744 443.421 121.907 442.313 123.747C441.201 125.593 439.433 126.895 437.339 127.418L418.842 132.02C419.179 140.744 418.172 149.369 415.846 157.696L433.07 166.3C434.998 167.266 436.438 168.92 437.118 170.962C437.797 173.004 437.636 175.181 436.669 177.102L428.916 192.495C426.917 196.458 422.059 198.067 418.077 196.081L400.642 187.376C395.713 193.571 389.943 199.027 383.473 203.619L391.504 221.456C392.385 223.417 392.45 225.599 391.685 227.606C390.92 229.617 389.409 231.211 387.436 232.091L371.657 239.137C367.594 240.947 362.811 239.137 360.989 235.089L352.918 217.161C348.709 218.091 344.4 218.705 340.095 218.981C335.79 219.263 331.435 219.213 327.136 218.836L321.467 237.653C320.42 241.133 317.202 243.386 313.729 243.386ZM276.266 192.053L277.041 192.822C283.002 198.731 289.809 203.669 297.28 207.506L298.267 208.014L291.984 228.853C291.571 230.231 291.717 231.684 292.397 232.946C293.082 234.214 294.224 235.144 295.609 235.556L312.178 240.499C315.043 241.349 318.063 239.73 318.914 236.884L325.218 215.974L326.31 216.085C330.816 216.538 335.398 216.618 339.919 216.326C344.445 216.03 348.971 215.356 353.376 214.325L354.444 214.073L363.41 233.992C364.629 236.703 367.836 237.915 370.56 236.703L386.338 229.658C387.662 229.069 388.669 228.003 389.183 226.65C389.696 225.308 389.651 223.849 389.062 222.537L380.13 202.688L381.042 202.06C387.959 197.282 394.071 191.504 399.207 184.877L399.876 184.012L419.265 193.692C421.938 195.03 425.196 193.948 426.53 191.288L434.283 175.895C434.928 174.613 435.038 173.155 434.585 171.792C434.132 170.424 433.17 169.318 431.877 168.669L412.664 159.074L412.976 158.008C415.539 149.293 416.601 140.221 416.128 131.054L416.073 129.958L436.695 124.828C438.099 124.481 439.282 123.606 440.028 122.369C440.768 121.137 440.984 119.694 440.637 118.301L436.453 101.591C435.733 98.7091 432.793 96.9491 429.893 97.6732L409.487 102.752L409.029 101.741C405.435 93.8363 400.616 86.5798 394.696 80.1782L393.946 79.3686L406.316 62.6782C407.172 61.5216 407.529 60.0985 407.312 58.6804C407.096 57.2572 406.341 56.0051 405.178 55.1502L391.262 44.9268C388.861 43.1617 385.462 43.6746 383.695 46.0633L371.415 62.633L370.419 62.1502C362.263 58.1876 353.563 55.6279 344.556 54.5417L343.458 54.411L342.124 33.944C341.928 30.9821 339.345 28.7342 336.374 28.9203L319.116 30.0417C316.14 30.2378 313.875 32.8025 314.066 35.7694L315.4 56.2314L314.328 56.5029C305.537 58.7407 297.24 62.4067 289.663 67.3952L288.737 68.0037L274.408 53.1639C272.339 51.0216 268.905 50.9562 266.755 53.018L254.285 64.9562C253.242 65.9519 252.653 67.2946 252.623 68.7328C252.593 70.171 253.132 71.5338 254.129 72.5698L268.563 87.5202L267.923 88.4203C262.884 95.526 259.042 103.346 256.505 111.653L256.183 112.714L235.289 110.326C232.318 109.958 229.63 112.111 229.293 115.063L227.314 132.17C227.148 133.599 227.551 135.002 228.447 136.123C229.348 137.254 230.632 137.969 232.072 138.129L253.182 140.543L253.268 141.634C253.998 150.787 256.228 159.642 259.893 167.96L260.341 168.976L242.539 180.974C241.341 181.784 240.53 183.006 240.258 184.419C239.986 185.827 240.283 187.26 241.089 188.452L250.775 202.709C252.452 205.168 255.82 205.816 258.292 204.147L276.266 192.053ZM334.627 184.127C309.343 184.127 287.997 164.505 286.335 139.02C284.603 112.473 304.883 89.4613 331.541 87.7314C344.455 86.8916 356.916 91.1107 366.643 99.6043C376.37 108.103 382.185 119.87 383.025 132.729C383.866 145.592 379.622 158.008 371.083 167.698C362.544 177.384 350.733 183.182 337.819 184.022C336.747 184.092 335.685 184.127 334.627 184.127ZM334.763 90.286C333.751 90.286 332.734 90.3212 331.712 90.3866C306.519 92.026 287.357 113.765 288.988 138.849C290.625 163.937 312.47 183.006 337.638 181.372C349.842 180.577 361.004 175.101 369.074 165.948C377.145 156.796 381.152 145.064 380.357 132.91C379.567 120.76 374.069 109.642 364.881 101.611C356.468 94.2486 345.87 90.286 334.763 90.286Z" fill="#DADADA"/>
<path d="M741.975 751.802H345.769C332.06 751.802 320.943 740.698 320.943 727.005V148.569C320.943 134.876 332.06 123.772 345.769 123.772H741.975C755.684 123.772 766.801 134.876 766.801 148.569V727.005C766.796 740.703 755.684 751.802 741.975 751.802Z" fill="#86A7FF"/>
<path d="M622.443 151.405H465.296V177.756H622.443V151.405Z" fill="#D3DFFF"/>
<path d="M722.325 217.92H365.419V296.982H722.325V217.92Z" fill="#DADADA"/>
<path d="M706.707 228.732H381.037V286.166H706.707V228.732Z" fill="white"/>
<path d="M629.239 365.579H604.992C597.712 365.579 591.812 359.686 591.812 352.414V346.812C591.812 339.541 597.712 333.647 604.992 333.647H629.239C636.519 333.647 642.42 339.541 642.42 346.812V352.414C642.42 359.686 636.519 365.579 629.239 365.579Z" fill="#1F3C88"/>
<path d="M709.144 365.579H684.897C677.617 365.579 671.716 359.686 671.716 352.414V346.812C671.716 339.541 677.617 333.647 684.897 333.647H709.144C716.424 333.647 722.325 339.541 722.325 346.812V352.414C722.325 359.686 716.424 365.579 709.144 365.579Z" fill="#1F3C88"/>
<path d="M716.037 445.838H667.331C663.868 445.838 661.053 443.032 661.053 439.567V410.421C661.053 406.961 663.863 404.15 667.331 404.15H716.037C719.5 404.15 722.315 406.956 722.315 410.421V439.567C722.315 443.032 719.505 445.838 716.037 445.838Z" fill="#1F3C88"/>
<path d="M618.304 445.838H569.599C566.135 445.838 563.321 443.032 563.321 439.567V410.421C563.321 406.961 566.13 404.15 569.599 404.15H618.304C621.768 404.15 624.582 406.956 624.582 410.421V439.567C624.582 443.032 621.773 445.838 618.304 445.838Z" fill="#1F3C88"/>
<path d="M520.577 445.838H471.872C468.408 445.838 465.593 443.032 465.593 439.567V410.421C465.593 406.961 468.403 404.15 471.872 404.15H520.577C524.04 404.15 526.855 406.956 526.855 410.421V439.567C526.85 443.032 524.04 445.838 520.577 445.838Z" fill="#1F3C88"/>
<path d="M422.844 445.838H374.139C370.675 445.838 367.861 443.032 367.861 439.567V410.421C367.861 406.961 370.67 404.15 374.139 404.15H422.844C426.308 404.15 429.123 406.956 429.123 410.421V439.567C429.117 443.032 426.308 445.838 422.844 445.838Z" fill="#1F3C88"/>
<path d="M716.037 521.224H667.331C663.868 521.224 661.053 518.418 661.053 514.953V485.806C661.053 482.347 663.863 479.536 667.331 479.536H716.037C719.5 479.536 722.315 482.342 722.315 485.806V514.953C722.315 518.418 719.505 521.224 716.037 521.224Z" fill="#1F3C88"/>
<path d="M618.304 521.224H569.599C566.135 521.224 563.321 518.418 563.321 514.953V485.806C563.321 482.347 566.13 479.536 569.599 479.536H618.304C621.768 479.536 624.582 482.342 624.582 485.806V514.953C624.582 518.418 621.773 521.224 618.304 521.224Z" fill="#D3DFFF"/>
<path d="M520.577 521.224H471.872C468.408 521.224 465.593 518.418 465.593 514.953V485.806C465.593 482.347 468.403 479.536 471.872 479.536H520.577C524.04 479.536 526.855 482.342 526.855 485.806V514.953C526.85 518.418 524.04 521.224 520.577 521.224Z" fill="#D3DFFF"/>
<path d="M422.844 521.224H374.139C370.675 521.224 367.861 518.418 367.861 514.953V485.806C367.861 482.347 370.67 479.536 374.139 479.536H422.844C426.308 479.536 429.123 482.342 429.123 485.806V514.953C429.117 518.418 426.308 521.224 422.844 521.224Z" fill="#D3DFFF"/>
<path d="M716.037 596.605H667.331C663.868 596.605 661.053 593.799 661.053 590.334V561.187C661.053 557.727 663.863 554.916 667.331 554.916H716.037C719.5 554.916 722.315 557.722 722.315 561.187V590.334C722.315 593.799 719.505 596.605 716.037 596.605Z" fill="#1F3C88"/>
<path d="M618.304 596.605H569.599C566.135 596.605 563.321 593.799 563.321 590.334V561.187C563.321 557.727 566.13 554.916 569.599 554.916H618.304C621.768 554.916 624.582 557.722 624.582 561.187V590.334C624.582 593.799 621.773 596.605 618.304 596.605Z" fill="#D3DFFF"/>
<path d="M520.577 596.605H471.872C468.408 596.605 465.593 593.799 465.593 590.334V561.187C465.593 557.727 468.403 554.916 471.872 554.916H520.577C524.04 554.916 526.855 557.722 526.855 561.187V590.334C526.85 593.799 524.04 596.605 520.577 596.605Z" fill="#D3DFFF"/>
<path d="M422.844 596.605H374.139C370.675 596.605 367.861 593.799 367.861 590.334V561.187C367.861 557.727 370.67 554.916 374.139 554.916H422.844C426.308 554.916 429.123 557.722 429.123 561.187V590.334C429.117 593.799 426.308 596.605 422.844 596.605Z" fill="#D3DFFF"/>
<path d="M716.037 674.646H667.331C663.868 674.646 661.053 671.84 661.053 668.375V639.228C661.053 635.769 663.863 632.957 667.331 632.957H716.037C719.5 632.957 722.315 635.763 722.315 639.228V668.375C722.315 671.84 719.505 674.646 716.037 674.646Z" fill="#FBC343"/>
<path d="M618.304 674.646H569.599C566.135 674.646 563.321 671.84 563.321 668.375V639.228C563.321 635.769 566.13 632.957 569.599 632.957H618.304C621.768 632.957 624.582 635.763 624.582 639.228V668.375C624.582 671.84 621.773 674.646 618.304 674.646Z" fill="#D3DFFF"/>
<path d="M520.577 674.646H471.872C468.408 674.646 465.593 671.84 465.593 668.375V639.228C465.593 635.769 468.403 632.957 471.872 632.957H520.577C524.04 632.957 526.855 635.763 526.855 639.228V668.375C526.85 671.84 524.04 674.646 520.577 674.646Z" fill="#D3DFFF"/>
<path d="M422.844 674.646H374.139C370.675 674.646 367.861 671.84 367.861 668.375V639.228C367.861 635.769 370.67 632.957 374.139 632.957H422.844C426.308 632.957 429.123 635.763 429.123 639.228V668.375C429.117 671.84 426.308 674.646 422.844 674.646Z" fill="#D3DFFF"/>
<path d="M635.794 270.471C636.736 270.571 637.828 270.471 639.309 270.32C641.831 269.978 644.212 268.937 646.04 267.207C648.17 265.276 649.705 262.46 650.299 258.653H650.153C648.366 260.826 645.793 262.113 642.581 262.113C636.786 262.113 633.076 257.763 633.076 252.272C633.076 246.187 637.481 240.847 644.066 240.847C650.652 240.847 654.71 246.187 654.71 254.394C654.71 261.464 652.333 266.413 649.166 269.48C646.689 271.904 643.271 273.388 639.812 273.785C638.226 274.031 636.842 274.081 635.799 274.031V270.471H635.794ZM637.375 251.98C637.375 255.983 639.802 258.804 643.563 258.804C646.483 258.804 648.764 257.371 649.901 255.44C650.153 255.048 650.294 254.55 650.294 253.856C650.294 248.37 648.265 244.165 643.709 244.165C640.003 244.165 637.375 247.429 637.375 251.98Z" fill="#3A6BEA"/>
<path d="M661.204 270.471C662.146 270.571 663.238 270.471 664.718 270.32C667.241 269.978 669.622 268.937 671.45 267.207C673.579 265.276 675.115 262.46 675.709 258.653H675.563C673.776 260.826 671.203 262.113 667.991 262.113C662.196 262.113 658.485 257.763 658.485 252.272C658.485 246.187 662.891 240.847 669.476 240.847C676.061 240.847 680.119 246.187 680.119 254.394C680.119 261.464 677.743 266.413 674.576 269.48C672.099 271.904 668.681 273.388 665.222 273.785C663.636 274.031 662.251 274.081 661.209 274.031V270.471H661.204ZM662.79 251.98C662.79 255.983 665.217 258.804 668.978 258.804C671.898 258.804 674.178 257.371 675.316 255.44C675.568 255.048 675.709 254.55 675.709 253.856C675.709 248.37 673.68 244.165 669.124 244.165C665.413 244.165 662.79 247.429 662.79 251.98Z" fill="#3A6BEA"/>
<path d="M1127.21 574.901H883.952V753.129H1127.21V574.901Z" fill="#FBC343"/>
<path d="M1127.22 615.251H1062.4V617.911H1127.22V615.251Z" fill="#E49B31"/>
<path d="M1127.22 712.804H1014.46V715.464H1127.22V712.804Z" fill="#E49B31"/>
<path d="M1005.22 639.485C1005.22 659.997 1002.13 680.615 995.847 700.649C986.286 731.088 958.077 751.787 926.172 751.787H883.957V574.916H994.759C1001.68 595.72 1005.22 617.534 1005.22 639.485Z" fill="#E49B31"/>
<path d="M782.74 722.057V741.055C782.74 747.733 777.333 753.134 770.647 753.134H570.113C563.427 753.134 558.019 747.733 558.019 741.055V722.057C558.019 715.379 563.427 709.978 570.113 709.978H770.647C777.333 709.978 782.74 715.379 782.74 722.057Z" fill="#FBC343"/>
<path d="M757.889 678.875V697.899C757.889 704.577 752.457 709.978 745.796 709.978H545.262C538.576 709.978 533.168 704.577 533.168 697.899V678.875C533.168 672.222 538.576 666.796 545.262 666.796H745.796C752.457 666.796 757.889 672.227 757.889 678.875Z" fill="#FBC343"/>
<path d="M782.74 722.057V741.055C782.74 747.733 777.333 753.134 770.647 753.134H626.848C616.914 740.894 610.843 725.119 607.193 709.983C602.984 692.633 601.891 676.169 601.654 666.801H745.801C752.462 666.801 757.894 672.227 757.894 678.88V697.904C757.894 704.582 752.462 709.983 745.801 709.983H770.652C777.333 709.978 782.74 715.378 782.74 722.057Z" fill="#E49B31"/>
<path d="M888.136 368.154L871.944 417.828L870.746 421.499L863.234 444.566L863.179 444.727L838.967 444.194L746.063 442.092L739.271 422.671L738.128 419.427L720.15 368.159C775.923 387.439 821.895 345.273 888.136 368.154Z" fill="#FBC343"/>
<path d="M870.741 421.494L863.229 444.561L838.967 444.189L746.063 442.087L739.271 422.666C771.206 422.107 826.154 421.363 870.741 421.494Z" fill="#E49B31"/>
<path d="M974.535 701.997C969.767 717.214 960.312 729.987 948.088 738.978C935.834 747.97 920.815 753.134 904.861 753.134H694.448C664.034 753.134 637.345 732.833 629.244 703.516C624.582 686.569 622.08 669.381 621.682 652.273C621.657 650.623 621.627 648.974 621.627 647.325C621.627 645.373 621.652 643.427 621.707 641.481C623.424 579.477 653.758 521.732 702.438 483.227L752.774 443.419L867.967 446.079L931.287 506.6C940.194 515.114 948.128 524.628 954.497 535.174C962.13 547.811 968.307 561.147 972.989 574.926C986.815 615.528 987.721 660.012 974.535 701.997Z" fill="#FBC343"/>
<path d="M787.171 697.557V675.32C771.458 674.616 756.228 670.401 747.312 665.252L754.355 637.85C764.208 643.226 778.028 648.149 793.278 648.149C806.64 648.149 815.783 643 815.783 633.636C815.783 624.73 808.281 619.103 790.927 613.25C765.844 604.822 748.716 593.115 748.716 570.4C748.716 549.787 763.261 533.635 788.349 528.717V506.465H811.312V527.077C827.025 527.781 837.578 531.065 845.311 534.802L838.514 561.268C832.422 558.693 821.638 553.297 804.742 553.297C789.507 553.297 784.583 559.855 784.583 566.417C784.583 574.141 792.79 579.059 812.722 586.552C840.614 596.394 851.876 609.262 851.876 630.353C851.876 651.197 837.099 668.988 810.144 673.68V697.557H787.171Z" fill="white"/>
<path d="M887.033 464.897H724.082C717.34 464.897 711.827 459.391 711.827 452.657V447.447C711.827 440.714 717.34 435.207 724.082 435.207H887.033C893.774 435.207 899.287 440.714 899.287 447.447V452.657C899.287 459.391 893.774 464.897 887.033 464.897Z" fill="#ED7545"/>
<path opacity="0.4" d="M974.535 701.997C969.767 717.214 960.312 729.987 948.088 738.978C935.834 747.97 920.815 753.134 904.861 753.134H694.448C664.034 753.134 637.345 732.833 629.244 703.516C624.582 686.569 622.08 669.381 621.682 652.273C656.492 685.422 697.509 728.765 793.394 730.093C912.463 731.742 963.776 676.004 972.989 574.931C986.814 615.528 987.721 660.012 974.535 701.997Z" fill="#E49B31"/>
<path d="M157.272 716.329L135.965 708.348L86.4699 751.802H145.043L157.272 716.329Z" fill="#102048"/>
<path d="M157.272 716.329H204.326L198.999 750.027L145.043 751.802L157.272 716.329Z" fill="#F9B384"/>
<path d="M346.147 527.419L344.415 539.207L343.378 546.312L335.921 597.369L333.072 616.871L330.539 634.27L323.909 679.604L319.302 711.054C315.838 734.704 295.543 752.239 271.599 752.239H167.482L167.613 750.907L170.996 716.319L171.475 711.451L244.054 697.481L253.801 626.762C249.008 606.195 250.181 586.401 252.256 572.512C254.013 560.674 256.465 553.141 256.465 553.141L288.852 543.858L346.147 527.419Z" fill="#1F3C88"/>
<path d="M323.903 679.604L319.297 711.054C315.833 734.704 295.538 752.239 271.594 752.239H266.267C313.97 743.711 304.651 682.848 323.903 679.604Z" fill="#102048"/>
<path d="M130.428 734.698L120.218 751.103L122.48 752.507L132.69 736.103L130.428 734.698Z" fill="white"/>
<path d="M335.916 597.369L330.534 634.27C315.541 629.985 295.765 608.578 295.765 608.578L335.916 597.369Z" fill="#102048"/>
<path d="M446.235 691.497C446.235 691.497 420.931 704.466 375.655 696.154L413.278 671.211L446.235 691.497Z" fill="#102048"/>
<path d="M432.309 709.374L391.851 710.279L391.609 701.554L390.97 677.638L426.927 680.298L428.634 689.526L432.309 709.374Z" fill="#F9B384"/>
<path d="M428.634 689.526L391.609 701.555L390.97 677.638L426.927 680.298L428.634 689.526Z" fill="#E28B6D"/>
<path d="M478.195 752.134L433.583 716.218L432.314 709.384L391.841 710.279L392.964 752.134H478.195Z" fill="#102048"/>
<path d="M447.789 726.279L431.805 736.25L433.215 738.506L449.199 728.536L447.789 726.279Z" fill="white"/>
<path d="M256.464 553.146L401.236 530.18C408.007 529.104 414.945 530.014 421.208 532.795C433.659 538.322 441.84 550.486 442.258 564.089L446.23 691.492C446.23 691.492 404.946 682.847 375.649 696.148L372.986 609.016C355.284 617.067 324.623 618.771 293.55 615.669L256.464 553.146Z" fill="#1F3C88"/>
<path d="M425.835 687.504H423.171C423.171 665.458 423.705 647.159 424.173 631.011C425.316 591.692 425.946 570.038 415.917 560.87C407.801 553.453 391.584 553.684 368.057 556.465C342.844 559.402 332.79 532.589 332.689 532.317L335.191 531.412C335.564 532.443 344.626 556.606 367.74 553.825C392.641 550.888 408.808 550.773 417.709 558.914C428.639 568.901 428.03 589.685 426.827 631.097C426.368 647.219 425.835 665.498 425.835 687.504Z" fill="#3A6BEA"/>
<path d="M375.705 680.102L374.758 677.613C375.096 677.487 408.868 664.93 446.134 674.238L445.49 676.818C409.064 667.721 376.032 679.976 375.705 680.102Z" fill="#3A6BEA"/>
<path d="M182.269 752.621C178.12 744.334 184.54 710.003 184.817 708.544L187.435 709.042C185.607 718.723 181.539 745.214 184.655 751.435L182.269 752.621Z" fill="#3A6BEA"/>
<path d="M331.737 542.506C331.737 542.506 321.512 564.24 298.443 578.873C290.614 583.822 282.916 586.085 276.019 586.11C265.607 586.135 256.948 581.081 252.26 572.512C254.018 560.674 256.469 553.141 256.469 553.141L288.857 543.858L321.537 542.822L331.737 542.506Z" fill="#102048"/>
<path d="M305.739 411.502V442.293H335.921V415.661L305.739 411.502Z" fill="#ED7545"/>
<path d="M335.921 396.622H305.739V411.502L335.921 415.661V396.622Z" fill="#F9B384"/>
<path d="M314.635 400.831C315.299 400.831 321.915 411.195 335.921 415.661L335.72 399.503L314.635 400.831Z" fill="#102048"/>
<path d="M339.476 359.816C339.476 359.816 356.12 404.602 334.592 407.484C313.064 410.365 309.731 400.61 309.731 400.61L303.07 376.884L317.942 356.93L339.476 359.816Z" fill="#F9B384"/>
<path d="M349.672 381.414C349.72 378.843 347.672 376.72 345.098 376.672C342.523 376.625 340.398 378.67 340.35 381.242C340.303 383.813 342.351 385.936 344.925 385.984C347.499 386.031 349.625 383.985 349.672 381.414Z" fill="#F9B384"/>
<path d="M316.835 381.098C316.835 381.098 317.942 357.151 339.476 359.811C339.476 359.811 324.986 341.225 305.895 348.431C296.198 352.092 289.713 361.34 288.762 371.649C287.533 384.975 295.327 400.162 306.202 402.822C306.202 402.822 309.751 394.62 315.722 384.201L316.835 381.098Z" fill="#102048"/>
<path d="M319.323 389.664C322.597 388.127 323.793 383.782 321.994 379.959C320.195 376.136 316.082 374.283 312.808 375.82C309.534 377.357 308.339 381.702 310.138 385.525C311.937 389.348 316.05 391.201 319.323 389.664Z" fill="#F9B384"/>
<path opacity="0.4" d="M338.281 384.077C338.33 380.712 335.637 377.944 332.267 377.896C328.898 377.848 326.127 380.537 326.079 383.903C326.031 387.269 328.723 390.036 332.093 390.084C335.463 390.132 338.233 387.443 338.281 384.077Z" fill="#EB5D60"/>
<path d="M317.409 385.312C317.041 385.312 316.744 385.015 316.744 384.648C316.744 384.493 316.669 380.781 312.545 380.208C312.183 380.158 311.926 379.821 311.976 379.454C312.027 379.092 312.364 378.855 312.727 378.885C318.008 379.625 318.073 384.593 318.073 384.643C318.073 385.015 317.781 385.312 317.409 385.312C317.414 385.312 317.414 385.312 317.409 385.312Z" fill="#102048"/>
<path d="M418.268 367.576C418.268 367.576 441.553 369.351 454.225 384.206L425.392 391.301L418.268 367.576Z" fill="#BA5C36"/>
<path d="M459.532 354.833C459.637 356.96 453.777 367.576 449.462 375.104C446.93 379.439 444.961 382.737 444.961 382.737L429.435 387.258L418.353 370.578L417.82 369.753C417.82 369.753 417.981 369.034 418.273 367.757V367.732C418.298 367.707 418.298 367.651 418.328 367.571C420.191 359.671 426.796 332.742 430.608 331.842C433.966 331.072 431.992 345.811 431.992 345.811C431.992 345.811 440.274 321.839 445.178 322.825C449.095 323.594 441.422 346.586 441.422 346.586C441.422 346.586 444.166 343.714 446.935 344.615C449.89 345.6 450.263 348.366 450.263 348.366C450.263 348.366 452.231 346.983 454.205 348.155C456.174 349.352 455.987 353.078 455.987 353.078C455.987 353.078 459.315 351.504 459.532 354.833Z" fill="#F9B384"/>
<path d="M298.68 431.481L288.132 472.666L271.78 536.521C260.673 541.445 248.953 543.255 239.659 541.711C228.87 539.931 221.333 533.65 221.841 522.557C223.175 492.62 298.68 431.481 298.68 431.481Z" fill="#ED7545"/>
<path d="M296.656 443.178L288.132 472.666L271.78 536.521C260.673 541.445 248.953 543.255 239.659 541.711C263.367 473.778 296.656 443.178 296.656 443.178Z" fill="#BA5C36"/>
<path d="M362.579 536.36C340.608 537.849 271.357 595.051 254.707 558.15C254.707 558.15 257.023 420.493 328.168 423.048C340.764 423.5 351.82 431.883 355.627 443.882C357.333 449.308 359.035 456.388 360.369 465.485C361.729 474.718 362.741 486.053 363.088 499.862C363.38 510.503 363.244 522.607 362.579 536.36Z" fill="#ED7545"/>
<path d="M363.083 499.857C352.082 492.751 340.603 471.334 340.603 471.334L360.364 465.48C361.729 474.718 362.741 486.048 363.083 499.857Z" fill="#BA5C36"/>
<path d="M449.462 375.104C446.93 379.439 444.961 382.737 444.961 382.737L429.435 387.258L418.353 370.578L418.273 367.757V367.571H418.328L449.462 375.104Z" fill="#E28B6D"/>
<path d="M328.173 423.048C328.173 423.048 362.338 425.441 382.98 429.434L418.273 367.576C429.052 376.19 441.034 381.747 454.23 384.206L423.343 456.896C416.531 470.7 402.67 479.646 387.27 480.174L334.371 481.98L328.173 423.048Z" fill="#ED7545"/>
<path d="M382.98 430.43C382.92 430.43 382.859 430.425 382.799 430.415C382.149 430.294 317.64 418.477 306.645 428.187C306.232 428.549 305.603 428.514 305.235 428.097C304.873 427.684 304.908 427.056 305.321 426.689C317.036 416.345 380.468 427.951 383.161 428.454C383.705 428.554 384.062 429.077 383.962 429.615C383.871 430.098 383.448 430.43 382.98 430.43Z" fill="#BA5C36"/>
<path d="M1089.93 695.042L1094.37 751.802H1020.46L1057.75 726.085L1057.08 690.612L1089.93 695.042Z" fill="#102048"/>
<path d="M1198.91 670.879L1218.89 719.432L1168.28 762L1175.6 714.111L1165.61 682.184L1198.91 670.879Z" fill="#102048"/>
<path d="M1109.47 397.054C1108.8 398.915 1108.19 401.314 1107.61 404.13C1106.62 409.053 1105.77 415.329 1105.05 422.726C1102.7 446.884 1101.72 482.774 1101.45 520.902C1100.89 606.758 1104.14 703.923 1104.14 703.923L1090.61 703.712L1057.32 703.204L1045.55 703.018C1027.71 567.011 1032.79 452.154 1035.48 412.166C1035.56 410.783 1035.67 409.505 1035.72 408.309C1036.28 400.967 1036.65 397.054 1036.65 397.054H1109.47Z" fill="#1F3C88"/>
<path d="M1211.56 683.516L1204.79 685.191L1169.32 694.052L1147.64 699.478C1147.64 699.478 1121.96 604.309 1101.45 520.902C1091.6 480.677 1082.92 443.188 1078.92 420.438C1077.53 412.402 1076.71 406.202 1076.6 402.375L1107.61 404.13L1146.76 406.362C1146.76 406.362 1147.72 411.975 1149.58 422.062C1157.04 462.267 1178.91 573.583 1211.56 683.516Z" fill="#1F3C88"/>
<path d="M1149.58 422.062C1133.81 423.365 1118.79 423.42 1105.05 422.726C1095.7 422.248 1086.94 421.424 1078.92 420.438C1059.1 417.964 1043.81 414.373 1035.48 412.166C1030.92 410.944 1028.45 410.144 1028.45 410.144L1035.72 408.309L1080.57 397.054H1109.47C1108.8 398.915 1108.19 401.314 1107.61 404.13L1146.76 406.362C1146.75 406.367 1147.72 411.98 1149.58 422.062Z" fill="#102048"/>
<path d="M1102.84 531.286C1100.68 522.265 1090.51 479.546 1089.18 472.309L1068.6 464.6L1069.53 462.106L1091.71 470.409V471.329C1091.86 473.3 1100 507.898 1105.43 530.663L1102.84 531.286Z" fill="#3A6BEA"/>
<path d="M1050.57 570.224C1040.89 570.224 1034.73 567.825 1034.39 567.684L1035.38 565.215C1035.48 565.261 1046.35 569.465 1061.71 566.477L1062.22 569.087C1057.95 569.917 1054.03 570.224 1050.57 570.224Z" fill="#3A6BEA"/>
<path d="M1127.68 568.358C1121.48 568.358 1116.27 567.393 1115.87 567.317L1116.37 564.702C1116.55 564.738 1134.56 568.067 1142.88 562.258L1144.4 564.436C1139.97 567.534 1133.4 568.358 1127.68 568.358Z" fill="#3A6BEA"/>
<path d="M1058.59 725.074L1056.97 727.186L1067.4 735.168L1069.02 733.057L1058.59 725.074Z" fill="white"/>
<path d="M1176.11 712.886L1175.11 715.351L1189.31 721.113L1190.32 718.648L1176.11 712.886Z" fill="white"/>
<path d="M1070.4 251.623C1070.4 251.623 1024.67 257.386 1013.14 308.825L1026.9 370.02L1020.68 410.813C1020.68 410.813 1082.83 417.018 1146.76 406.378L1127.34 302.393L1070.4 251.623Z" fill="#ED7545"/>
<path d="M1098.81 381.988C1098.81 381.988 1085.05 371.901 1103.03 327.668L1115.02 371.232L1098.81 381.988Z" fill="#6E3620"/>
<path d="M1045.19 326.39L1041.86 320.12L1093.02 293.065C1094.45 292.311 1096.22 292.854 1096.98 294.282L1097.56 295.383C1098.32 296.811 1097.77 298.581 1096.34 299.336L1045.19 326.39Z" fill="#102048"/>
<path d="M1110.35 367.576L1108.99 366.832L1091.33 357.307L1061.74 341.316C1061.21 337.75 1061.61 334.718 1063.74 332.641L1062.27 332.058C1059.88 331.047 1058.12 328.89 1057.64 326.31L1057.58 325.993C1056.81 323.413 1057.18 321.02 1057.42 319.687L1058.11 318.782C1059.85 316.519 1060.62 315.377 1062.86 313.592L1059.08 313.803C1059.08 313.803 1049.75 316.358 1054.1 310.374C1057.08 306.225 1063.76 302.71 1067.58 300.955C1069.17 300.211 1071.12 300.528 1072.34 301.805C1085.16 315.081 1107.69 330.992 1107.69 330.992L1107.93 334.235L1110.11 364.111L1110.35 367.576Z" fill="#F9B384"/>
<path d="M1075.43 316.735L1067.37 312.803C1066.53 312.39 1065.59 312.26 1064.67 312.421L1056.09 313.914L1055.86 312.602L1064.44 311.108C1065.65 310.897 1066.86 311.073 1067.96 311.606L1076.02 315.538L1075.43 316.735Z" fill="#E28B6D"/>
<path d="M1073.93 324.298L1064.26 320.597C1063.83 320.431 1063.38 320.351 1062.92 320.351H1057.42V319.023H1062.92C1063.54 319.023 1064.16 319.134 1064.74 319.36L1074.41 323.061L1073.93 324.298Z" fill="#E28B6D"/>
<path d="M1072.6 331.837L1063.82 328.523C1063.13 328.261 1062.38 328.166 1061.64 328.251L1058.04 328.658L1057.89 327.336L1061.49 326.929C1062.43 326.823 1063.41 326.944 1064.3 327.281L1073.08 330.594L1072.6 331.837Z" fill="#E28B6D"/>
<path d="M1110.11 364.116L1108.99 366.832L1091.33 357.307L1103.02 327.668L1107.92 334.24L1110.11 364.116Z" fill="#E28B6D"/>
<path d="M1098.81 381.988C1098.81 381.988 1125.23 407.041 1146.76 406.378L1140.54 376.889L1098.81 381.988Z" fill="#BA5C36"/>
<path d="M1070.4 251.623C1070.4 251.623 1073.65 251.286 1079.07 251.472C1132.39 253.293 1173.23 299.12 1170.63 352.344C1169.55 374.344 1163.83 396.189 1145.42 396.627L1098.81 381.993C1103.21 365.524 1106.49 348.446 1103.03 327.673L1124.67 337.982L1070.4 251.623Z" fill="#ED7545"/>
<path d="M1085.6 379.946L1020.46 381.546L1018.67 376.034L1012.12 355.924L993.153 297.737L1058.3 296.143L1085.6 379.946Z" fill="#D3DFFF"/>
<path opacity="0.3" d="M1025.94 348.954C1025.94 348.954 1025.84 366.937 1018.67 376.039L1012.12 355.924L1025.94 348.954Z" fill="#1F3C88"/>
<path d="M994.346 347.546C996.4 340.928 1000.14 334.819 1004.25 329.307C1005.56 327.552 1008.4 323.242 1011.14 323.896C1016.68 325.229 1011.14 334.979 1011.14 334.979C1011.14 334.979 1016.46 326.999 1018.46 330.987C1020.46 334.979 1017.58 339.41 1017.58 339.41C1017.58 339.41 1026.01 333.868 1022.9 344.951C1022.9 344.951 1029.79 344.066 1025.57 351.604C1022.56 356.985 1020.61 362.979 1016.84 367.928C1013.04 372.906 1005.9 375.702 999.97 372.861C992.997 369.522 992.106 360.616 992.967 353.837C993.239 351.695 993.712 349.598 994.346 347.546Z" fill="#F9B384"/>
<path d="M1006.31 345.791C1006.22 345.791 1006.13 345.771 1006.04 345.736C1005.7 345.585 1005.55 345.193 1005.7 344.856L1012.02 330.554C1012.17 330.217 1012.57 330.066 1012.9 330.217C1013.24 330.368 1013.39 330.76 1013.24 331.097L1006.91 345.399C1006.81 345.645 1006.56 345.791 1006.31 345.791Z" fill="#E28B6D"/>
<path d="M1012.8 351.117C1012.7 351.117 1012.61 351.097 1012.52 351.051C1012.18 350.895 1012.04 350.498 1012.19 350.166L1018.19 337.363C1018.35 337.031 1018.74 336.89 1019.07 337.041C1019.4 337.197 1019.55 337.594 1019.39 337.926L1013.4 350.729C1013.29 350.971 1013.05 351.117 1012.8 351.117Z" fill="#E28B6D"/>
<path d="M1017.79 355.436C1017.69 355.436 1017.58 355.411 1017.48 355.361C1017.16 355.19 1017.03 354.788 1017.2 354.461L1022.36 344.65C1022.54 344.328 1022.94 344.202 1023.27 344.373C1023.59 344.544 1023.72 344.946 1023.54 345.273L1018.38 355.084C1018.26 355.306 1018.03 355.436 1017.79 355.436Z" fill="#E28B6D"/>
<path d="M1039.32 301.951H1016.02L1012.02 293.97H1035.33L1039.32 301.951Z" fill="#102048"/>
<path d="M1069.77 277.607C1062.85 277.607 1058.31 274.192 1058.25 274.142C1057.81 273.805 1057.73 273.181 1058.06 272.744C1058.4 272.311 1059.03 272.226 1059.46 272.563C1059.85 272.849 1068.88 279.568 1080.98 272.276C1081.45 271.989 1082.07 272.145 1082.35 272.613C1082.63 273.086 1082.48 273.699 1082.01 273.981C1077.49 276.706 1073.31 277.607 1069.77 277.607Z" fill="#BA5C36"/>
<path d="M1098.81 382.984C1098.72 382.984 1098.62 382.969 1098.53 382.944C1098 382.788 1097.7 382.23 1097.85 381.701C1107.43 349.311 1102.12 328.13 1102.06 327.919L1101.67 326.431L1142.92 333.335C1143.47 333.426 1143.83 333.939 1143.74 334.482C1143.65 335.03 1143.11 335.397 1142.6 335.301L1104.31 328.89C1105.34 334.306 1108.06 354.224 1099.78 382.265C1099.64 382.702 1099.24 382.984 1098.81 382.984Z" fill="#BA5C36"/>
<path d="M1128.99 332.656C1128.97 332.656 1128.95 332.656 1128.93 332.656C1128.38 332.621 1127.96 332.148 1128 331.6C1128.01 331.384 1129.11 309.926 1114.18 287.875C1113.87 287.418 1113.99 286.799 1114.45 286.492C1114.91 286.186 1115.53 286.301 1115.84 286.759C1131.16 309.393 1130 331.5 1129.99 331.721C1129.95 332.249 1129.52 332.656 1128.99 332.656Z" fill="#BA5C36"/>
<path d="M1088.71 227.133V252.81C1088.71 261.092 1082.24 267.806 1074.26 267.806C1066.28 267.806 1059.82 261.092 1059.82 252.81V227.133H1088.71Z" fill="#F9B384"/>
<path d="M1075.06 230.558C1075.06 230.558 1073.56 246.423 1059.82 251.01V228.471L1075.06 230.558Z" fill="#102048"/>
<path d="M1048.92 197.866C1048.92 197.866 1044.44 233.882 1058.5 238.151C1072.55 242.426 1085.39 230.015 1085.39 230.015L1082.74 200.31L1061.96 188.1L1048.92 197.866Z" fill="#F9B384"/>
<path d="M1128.89 267.861L1101.16 269.696C1097.65 265.839 1095.67 260.413 1094.37 254.293C1093.2 260.594 1094.12 265.829 1097.22 269.963L1089.71 270.471C1083.05 260.519 1077.45 238.493 1084.06 219.655L1084.83 215.21C1084.83 215.21 1080.09 200.868 1073.21 200.26C1073.21 200.26 1049.64 216.145 1039.15 198.424C1031.32 185.229 1037.93 167.879 1056.76 180.678C1056.76 180.678 1102.01 159.471 1101.9 202.945C1101.88 210.739 1104.81 218.403 1110.59 223.618C1111.06 224.096 1111.6 224.548 1112.16 224.976C1122.31 233.007 1133.25 249.023 1128.89 267.861Z" fill="#102048"/>
<path d="M1091.86 217.511C1093.2 213.361 1091.4 209.07 1087.85 207.926C1084.29 206.782 1080.33 209.22 1078.99 213.37C1077.65 217.52 1079.45 221.812 1083 222.955C1086.56 224.099 1090.52 221.661 1091.86 217.511Z" fill="#F9B384"/>
<path d="M1084.6 217.92C1084.23 217.92 1083.94 217.624 1083.94 217.257C1083.94 214.385 1086.21 211.851 1088.9 211.715C1088.91 211.715 1088.92 211.715 1088.93 211.715C1089.28 211.715 1089.58 211.992 1089.6 212.349C1089.62 212.716 1089.33 213.027 1088.96 213.048C1087.18 213.138 1085.27 214.853 1085.27 217.262C1085.27 217.624 1084.97 217.92 1084.6 217.92Z" fill="#102048"/>
<path d="M1053.86 211.599C1053.86 212.52 1053.12 213.264 1052.19 213.264C1051.27 213.264 1050.53 212.52 1050.53 211.599C1050.53 210.679 1051.27 209.935 1052.19 209.935C1053.12 209.94 1053.86 210.684 1053.86 211.599Z" fill="#102048"/>
<path d="M1063.9 210.77C1063.9 211.69 1063.16 212.434 1062.24 212.434C1061.32 212.434 1060.57 211.69 1060.57 210.77C1060.57 209.849 1061.32 209.105 1062.24 209.105C1063.16 209.105 1063.9 209.854 1063.9 210.77Z" fill="#102048"/>
<path d="M1056.25 222.743C1056.08 222.743 1055.91 222.683 1055.78 222.552C1054.43 221.229 1053.88 219.977 1054.14 218.821C1054.4 217.649 1055.44 216.97 1056.06 216.658L1055.92 213.375C1055.9 213.007 1056.19 212.696 1056.55 212.681C1056.91 212.681 1057.23 212.952 1057.24 213.314L1057.43 217.553L1056.96 217.714C1056.59 217.84 1055.6 218.343 1055.43 219.117C1055.25 219.952 1056.02 220.928 1056.71 221.596C1056.97 221.853 1056.98 222.275 1056.72 222.537C1056.59 222.678 1056.42 222.743 1056.25 222.743Z" fill="#102048"/>
<path d="M1057.59 227.535C1057.04 227.535 1056.69 227.485 1056.64 227.475C1056.28 227.42 1056.03 227.078 1056.09 226.716C1056.15 226.354 1056.52 226.112 1056.85 226.163C1056.89 226.168 1060.26 226.65 1063.22 224.076C1063.49 223.834 1063.91 223.859 1064.16 224.141C1064.4 224.418 1064.37 224.84 1064.09 225.081C1061.64 227.214 1058.98 227.535 1057.59 227.535Z" fill="#102048"/>
<path opacity="0.4" d="M1070.52 222.743C1072.93 222.743 1074.89 220.789 1074.89 218.378C1074.89 215.967 1072.93 214.013 1070.52 214.013C1068.11 214.013 1066.15 215.967 1066.15 218.378C1066.15 220.789 1068.11 222.743 1070.52 222.743Z" fill="#EB5D60"/>
</g>
<defs>
<clipPath id="clip0">
<rect width="1358.93" height="762" fill="white"/>
</clipPath>
</defs>
</svg>
